<svg width="128" height="40" viewBox="0 0 128 40" fill="none" xmlns="http://www.w3.org/2000/svg">
<path d="M1.08333 40C0.485025 40 -2.12011e-08 39.515 -4.7354e-08 38.9167L-5.20894e-07 28.0833C-5.47047e-07 27.485 0.485024 27 1.08333 27L11.9167 27C12.515 27 13 27.485 13 28.0833L13 38.9167C13 39.515 12.515 40 11.9167 40L1.08333 40Z" fill="black"/>
<path d="M15.0833 27C14.485 27 14 26.5178 14 25.9231L14 14.0769C14 13.4822 14.485 13 15.0833 13L25.9167 13C26.515 13 27 13.4822 27 14.0769L27 25.9231C27 26.5178 26.515 27 25.9167 27L15.0833 27Z" fill="black"/>
<path d="M1.08333 13C0.485025 13 -2.12011e-08 12.515 -4.7354e-08 11.9167L-5.20894e-07 1.08333C-5.47047e-07 0.485025 0.485024 9.32473e-07 1.08333 9.0632e-07L11.9167 4.3278e-07C12.515 4.06627e-07 13 0.485025 13 1.08333L13 11.9167C13 12.515 12.515 13 11.9167 13L1.08333 13Z" fill="black"/>
<path d="M39.8293 10.5089L38.6601 9.5858L43.9913 4.35503C44.3654 4.37081 44.6538 4.46548 44.8565 4.63905C45.0747 4.79684 45.1838 5.00986 45.1838 5.27811C45.1838 5.49901 45.1137 5.69625 44.9734 5.86982C44.8487 6.04339 44.6616 6.23274 44.4122 6.43787L39.8293 10.5089ZM38.6134 9.89349L39.9228 9.11242L45.8619 14.5089C45.8307 14.856 45.7216 15.1321 45.5346 15.3373C45.3631 15.5424 45.1293 15.645 44.8331 15.645C44.5993 15.645 44.381 15.5819 44.1784 15.4556C43.9913 15.3294 43.7965 15.1637 43.5938 14.9586L38.6134 9.89349ZM37 9.15976L38.8706 9.44379V15.4556C38.7926 15.4872 38.6757 15.5187 38.5199 15.5503C38.364 15.5976 38.1925 15.6213 38.0054 15.6213C37.6781 15.6213 37.4287 15.5582 37.2572 15.432C37.0857 15.2899 37 15.069 37 14.7692V9.15976ZM38.8706 10.3669L37 10.0828V0.165681C37.0779 0.134122 37.1949 0.102564 37.3507 0.0710057C37.5222 0.0236681 37.7015 0 37.8885 0C38.2159 0 38.4575 0.0710054 38.6134 0.213017C38.7849 0.33925 38.8706 0.552268 38.8706 0.852071V10.3669Z" fill="black"/>
<path d="M48.7973 11.2426L48.7038 9.75148L55.7653 8.78106C55.7029 7.91321 55.4067 7.20316 54.8767 6.65089C54.3467 6.08284 53.6141 5.79882 52.6788 5.79882C51.7123 5.79882 50.9095 6.15385 50.2704 6.8639C49.6469 7.55819 49.3351 8.56016 49.3351 9.86982V10.3905C49.4442 11.6529 49.8495 12.6154 50.551 13.2781C51.2681 13.925 52.2423 14.2485 53.4738 14.2485C54.1285 14.2485 54.7208 14.1381 55.2508 13.9172C55.7808 13.6963 56.2017 13.4596 56.5135 13.2071C56.685 13.3176 56.8175 13.4517 56.911 13.6095C57.0201 13.7515 57.0747 13.9172 57.0747 14.1065C57.0747 14.4063 56.9032 14.6903 56.5603 14.9586C56.2329 15.211 55.7886 15.4162 55.2275 15.574C54.6819 15.7318 54.0661 15.8106 53.3803 15.8106C52.18 15.8106 51.1356 15.5897 50.247 15.1479C49.3741 14.7061 48.696 14.0513 48.2128 13.1834C47.7451 12.2998 47.5113 11.2268 47.5113 9.9645C47.5113 9.06509 47.636 8.26824 47.8854 7.57396C48.1504 6.8639 48.5089 6.2643 48.961 5.77515C49.4286 5.286 49.982 4.91519 50.6211 4.66272C51.2603 4.39448 51.9539 4.26035 52.7022 4.26035C53.6531 4.26035 54.487 4.46548 55.2041 4.87574C55.9367 5.286 56.5057 5.86193 56.911 6.60355C57.3319 7.32939 57.5423 8.16568 57.5423 9.11242C57.5423 9.45957 57.4644 9.71203 57.3085 9.86982C57.1526 10.0118 56.9344 10.0986 56.6538 10.1302L48.7973 11.2426Z" fill="black"/>
<path d="M62.3509 13.0651C62.0859 12.5602 61.7663 11.8817 61.3922 11.0296C61.0181 10.1617 60.6284 9.19921 60.2231 8.14201C59.8334 7.06903 59.4592 5.98028 59.1007 4.87574C59.2098 4.71795 59.3501 4.59172 59.5216 4.49704C59.7087 4.40237 59.9035 4.35503 60.1062 4.35503C60.3712 4.35503 60.5894 4.42603 60.7609 4.56805C60.9323 4.71006 61.0726 4.94675 61.1817 5.27811C61.6494 6.60355 62.1404 7.9211 62.6548 9.23077C63.1692 10.5404 63.7382 11.8974 64.3617 13.3018H64.4553C64.7826 12.6391 65.1256 11.8106 65.4841 10.8166C65.8426 9.82248 66.1856 8.77317 66.5129 7.66864C66.8403 6.5641 67.1131 5.52268 67.3313 4.54438C67.4404 4.49704 67.5573 4.45759 67.682 4.42603C67.8223 4.3787 67.9704 4.35503 68.1263 4.35503C68.3913 4.35503 68.6095 4.42603 68.781 4.56805C68.9525 4.69428 69.0382 4.89152 69.0382 5.15976C69.0382 5.41223 68.9681 5.83826 68.8278 6.43787C68.6875 7.0217 68.4926 7.70809 68.2432 8.49704C68.0094 9.27022 67.7288 10.0986 67.4015 10.9822C67.0897 11.8501 66.7468 12.7101 66.3726 13.5621C66.0141 14.3984 65.6478 15.1558 65.2737 15.8343C64.5566 17.1755 63.9019 18.2012 63.3095 18.9112C62.7172 19.6371 62.1716 20 61.6728 20C61.3142 20 61.0337 19.9053 60.831 19.716C60.644 19.5266 60.527 19.3057 60.4803 19.0533C60.8232 18.7535 61.2051 18.3511 61.626 17.8462C62.0625 17.357 62.4756 16.8205 62.8653 16.2367C63.2706 15.6686 63.5979 15.1243 63.8473 14.6035C63.5823 14.5247 63.3329 14.3826 63.0991 14.1775C62.8809 13.9724 62.6315 13.6016 62.3509 13.0651Z" fill="black"/>
<path d="M76.4097 4.26035C77.3762 4.26035 78.2413 4.47337 79.0051 4.89941C79.7846 5.30966 80.3925 5.94083 80.829 6.7929C81.281 7.64497 81.5071 8.72584 81.5071 10.0355C81.5071 11.3609 81.2732 12.4497 80.8056 13.3018C80.3535 14.1538 79.7222 14.785 78.9116 15.1953C78.101 15.6055 77.1579 15.8106 76.0823 15.8106C75.3185 15.8106 74.6248 15.716 74.0013 15.5266C73.3934 15.3373 72.8946 15.1321 72.5048 14.9112C72.1775 14.6903 71.9515 14.4852 71.8268 14.2959C71.702 14.1065 71.6397 13.8462 71.6397 13.5148V5.63313H73.5103V13.5148C73.7441 13.6884 74.087 13.854 74.5391 14.0118C74.9912 14.1696 75.5056 14.2485 76.0823 14.2485C77.1423 14.2485 77.9919 13.9093 78.631 13.2308C79.2857 12.5523 79.6131 11.4872 79.6131 10.0355C79.6131 8.56805 79.2857 7.50296 78.631 6.84024C77.9763 6.16174 77.1423 5.82248 76.1291 5.82248C75.5056 5.82248 74.9522 5.94872 74.469 6.20118C73.9857 6.43787 73.5882 6.714 73.2765 7.02958L72.9257 5.49112C73.2687 5.22288 73.7285 4.95463 74.3053 4.68639C74.882 4.40237 75.5835 4.26035 76.4097 4.26035ZM73.5103 6.01183H71.6397V0.165681C71.7176 0.134122 71.8345 0.102564 71.9904 0.0710057C72.1619 0.0236681 72.3412 0 72.5282 0C72.8556 0 73.0972 0.0710054 73.2531 0.213017C73.4245 0.33925 73.5103 0.552268 73.5103 0.852071V6.01183Z" fill="black"/>
<path d="M94.4569 10.0355C94.4569 11.2032 94.2386 12.2209 93.8022 13.0888C93.3657 13.9566 92.75 14.6272 91.955 15.1006C91.16 15.574 90.2247 15.8106 89.1491 15.8106C88.0735 15.8106 87.1304 15.574 86.3198 15.1006C85.5248 14.6272 84.9091 13.9566 84.4726 13.0888C84.0361 12.2209 83.8179 11.2032 83.8179 10.0355C83.8179 8.85207 84.0361 7.83432 84.4726 6.98225C84.9247 6.1144 85.5482 5.44379 86.3432 4.97041C87.1538 4.49704 88.0891 4.26035 89.1491 4.26035C90.2091 4.26035 91.1366 4.49704 91.9316 4.97041C92.7266 5.44379 93.3423 6.1144 93.7788 6.98225C94.2308 7.83432 94.4569 8.85207 94.4569 10.0355ZM89.1491 5.82248C88.1047 5.82248 87.2707 6.20118 86.6472 6.95858C86.0392 7.7002 85.7352 8.72584 85.7352 10.0355C85.7352 11.3609 86.0314 12.3945 86.6238 13.1361C87.2317 13.8777 88.0735 14.2485 89.1491 14.2485C90.2091 14.2485 91.0352 13.8777 91.6276 13.1361C92.2355 12.3787 92.5395 11.3452 92.5395 10.0355C92.5395 8.72584 92.2355 7.7002 91.6276 6.95858C91.0352 6.20118 90.2091 5.82248 89.1491 5.82248Z" fill="black"/>
<path d="M101.254 14.2722C101.909 14.2722 102.446 14.2091 102.867 14.0828C103.304 13.9408 103.615 13.8067 103.803 13.6805V10.2485L100.903 10.5562C100.093 10.6193 99.4924 10.8008 99.1026 11.1006C98.7129 11.4004 98.5181 11.8343 98.5181 12.4024C98.5181 12.9862 98.7441 13.4438 99.1962 13.7751C99.6638 14.1065 100.35 14.2722 101.254 14.2722ZM101.23 4.26035C102.587 4.26035 103.662 4.56805 104.457 5.18343C105.252 5.79882 105.65 6.76923 105.65 8.09467V13.7041C105.65 14.0513 105.58 14.3195 105.439 14.5089C105.315 14.6824 105.12 14.8481 104.855 15.0059C104.481 15.211 103.982 15.4004 103.358 15.574C102.735 15.7475 102.033 15.8343 101.254 15.8343C99.7885 15.8343 98.6506 15.5424 97.84 14.9586C97.045 14.3748 96.6475 13.5306 96.6475 12.426C96.6475 11.4004 96.9826 10.6193 97.6529 10.0828C98.3388 9.53057 99.2819 9.19921 100.482 9.08876L103.803 8.75739V8.09467C103.803 7.30572 103.569 6.72978 103.101 6.36686C102.633 6.00394 102.002 5.82248 101.207 5.82248C100.568 5.82248 99.9522 5.91716 99.3599 6.10651C98.7831 6.29586 98.2687 6.50888 97.8166 6.74556C97.6919 6.63511 97.575 6.50888 97.4659 6.36686C97.3724 6.20907 97.3256 6.05128 97.3256 5.89349C97.3256 5.48323 97.5516 5.16765 98.0037 4.94675C98.4246 4.72584 98.9078 4.56016 99.4534 4.4497C100.015 4.32347 100.607 4.26035 101.23 4.26035Z" fill="black"/>
<path d="M110.935 6.60355V10.3432H109.064V6.74556C109.064 6.38264 109.126 6.09862 109.251 5.89349C109.391 5.67258 109.617 5.45957 109.929 5.25444C110.335 4.98619 110.888 4.7574 111.589 4.56805C112.291 4.36292 113.07 4.26035 113.928 4.26035C115.175 4.26035 115.798 4.57594 115.798 5.2071C115.798 5.36489 115.775 5.51479 115.728 5.6568C115.681 5.78304 115.619 5.89349 115.541 5.98816C115.385 5.95661 115.182 5.92505 114.933 5.89349C114.684 5.86193 114.434 5.84615 114.185 5.84615C113.468 5.84615 112.836 5.92505 112.291 6.08284C111.745 6.22485 111.293 6.39842 110.935 6.60355ZM109.064 9.25444L110.935 9.53846V15.4556C110.857 15.4872 110.74 15.5187 110.584 15.5503C110.428 15.5976 110.257 15.6213 110.07 15.6213C109.742 15.6213 109.493 15.5582 109.321 15.432C109.15 15.2899 109.064 15.069 109.064 14.7692V9.25444Z" fill="black"/>
<path d="M125.129 13.6331V5.68047L127 5.6568V13.7041C127 14.0039 126.93 14.2485 126.79 14.4379C126.665 14.6114 126.462 14.785 126.182 14.9586C125.87 15.1637 125.426 15.3531 124.849 15.5266C124.272 15.716 123.61 15.8106 122.861 15.8106C121.739 15.8106 120.749 15.6134 119.892 15.2189C119.034 14.8245 118.364 14.2091 117.881 13.3728C117.398 12.5207 117.156 11.4241 117.156 10.0828C117.156 8.71006 117.39 7.59763 117.857 6.74556C118.341 5.89349 118.988 5.27022 119.798 4.87574C120.609 4.46548 121.497 4.26035 122.464 4.26035C123.072 4.26035 123.649 4.34714 124.194 4.52071C124.74 4.69428 125.168 4.9073 125.48 5.15976V6.91124C125.184 6.61144 124.794 6.35897 124.311 6.15385C123.843 5.93294 123.29 5.82248 122.651 5.82248C122.012 5.82248 121.419 5.9645 120.874 6.24852C120.328 6.51676 119.892 6.96647 119.564 7.59763C119.237 8.2288 119.073 9.07298 119.073 10.1302C119.073 11.5661 119.416 12.6154 120.102 13.2781C120.788 13.925 121.7 14.2485 122.838 14.2485C123.384 14.2485 123.828 14.1933 124.171 14.0828C124.529 13.9566 124.849 13.8067 125.129 13.6331ZM127 6.13018L125.129 6.15385V0.165681C125.207 0.134122 125.324 0.102564 125.48 0.0710057C125.652 0.0236681 125.823 0 125.995 0C126.338 0 126.587 0.0710054 126.743 0.213017C126.914 0.33925 127 0.552268 127 0.852071V6.13018Z" fill="black"/>
<path d="M41.7162 30.8258H43.0793C43.8426 30.8258 44.4696 30.6584 44.9603 30.3235C45.451 29.971 45.6964 29.4598 45.6964 28.79C45.6964 28.1203 45.4692 27.6179 45.0148 27.283C44.5786 26.9305 43.8789 26.7543 42.9157 26.7543C42.6794 26.7543 42.4704 26.7631 42.2887 26.7807C42.107 26.7983 41.9161 26.8248 41.7162 26.86V30.8258ZM43.57 34.3421H37V25.0093C37 24.6392 37.109 24.3572 37.3271 24.1633C37.5452 23.9518 37.8269 23.7843 38.1722 23.661C38.7902 23.4495 39.508 23.2996 40.3259 23.2115C41.1437 23.1058 42.0161 23.0529 42.943 23.0529C45.451 23.0529 47.3411 23.5728 48.6133 24.6128C49.8855 25.635 50.5216 27.0098 50.5216 28.7372C50.5216 29.8123 50.2036 30.7729 49.5675 31.619C48.9495 32.465 48.1135 33.1348 47.0594 33.6283C46.0235 34.1042 44.8603 34.3421 43.57 34.3421ZM42.5613 33.311L46.8959 32.465C47.2957 32.9938 47.7046 33.5137 48.1226 34.0249C48.5406 34.536 48.9314 35.0295 49.2949 35.5054C49.6765 35.9813 50.0218 36.422 50.3308 36.8274C50.6397 37.2328 50.8851 37.5853 51.0668 37.8849C50.8851 38.4842 50.5489 38.9513 50.0582 39.2862C49.5856 39.621 49.0495 39.7885 48.4498 39.7885C47.6683 39.7885 47.0685 39.621 46.6505 39.2862C46.2507 38.9513 45.8781 38.5106 45.5328 37.9642L42.5613 33.311ZM37 32.5443H41.7707V39.4977C41.5708 39.5505 41.2619 39.6034 40.8438 39.6563C40.4258 39.7092 39.9987 39.7356 39.5626 39.7356C38.6175 39.7356 37.9541 39.577 37.5725 39.2597C37.1908 38.9248 37 38.352 37 37.5412V32.5443Z" fill="black"/>
<path d="M60.777 27.3888H60.6134C60.4499 27.8823 60.2681 28.4199 60.0682 29.0016C59.8683 29.5832 59.6593 30.2001 59.4412 30.8523C59.2231 31.4868 59.0141 32.1477 58.8142 32.8351L58.2144 35.8227C58.1054 36.1752 58.0054 36.5189 57.9145 36.8538C57.8418 37.1887 57.7601 37.506 57.6692 37.8056C57.5965 38.1052 57.5238 38.3961 57.4511 38.6781C57.3784 38.9601 57.3057 39.2333 57.233 39.4977C56.9967 39.5682 56.7332 39.6387 56.4424 39.7092C56.1516 39.7797 55.8063 39.8149 55.4065 39.8149C54.4978 39.8149 53.8163 39.6651 53.3619 39.3655C52.9076 39.0482 52.6804 38.6164 52.6804 38.07C52.6804 37.8232 52.7167 37.5765 52.7894 37.3297C52.8621 37.0829 52.9439 36.7921 53.0348 36.4572C53.1802 35.8932 53.3983 35.1706 53.689 34.2893C53.9798 33.3904 54.2979 32.4298 54.6432 31.4075C55.0067 30.3675 55.3611 29.3541 55.7064 28.367C56.0699 27.38 56.397 26.4987 56.6878 25.7232C56.9786 24.93 57.1967 24.3484 57.3421 23.9782C57.651 23.802 58.1235 23.6345 58.7596 23.4759C59.3957 23.3173 60.0228 23.2379 60.6407 23.2379C61.5494 23.2379 62.3581 23.3701 63.0669 23.6345C63.7757 23.8813 64.221 24.2867 64.4027 24.8507C64.7299 25.7496 65.0752 26.8072 65.4387 28.0233C65.8203 29.2219 66.202 30.4821 66.5836 31.804C66.9835 33.1083 67.3651 34.3862 67.7286 35.6376C68.0921 36.8714 68.4102 37.9819 68.6828 38.9689C68.4647 39.198 68.1375 39.3919 67.7014 39.5505C67.2652 39.7092 66.7472 39.7885 66.1475 39.7885C65.2569 39.7885 64.639 39.6475 64.2937 39.3655C63.9484 39.0658 63.6939 38.6164 63.5304 38.0171L62.8488 35.479L62.3036 32.7558C62.1219 32.0684 61.9401 31.4075 61.7584 30.7729C61.5767 30.1384 61.404 29.5391 61.2404 28.9751C61.0769 28.3935 60.9224 27.8647 60.777 27.3888ZM56.1698 36.1928L58.0509 32.6236H64.0483L64.6208 36.1928H56.1698Z" fill="black"/>
<path d="M83.6271 25.8289C83.6271 26.2696 83.509 26.6661 83.2727 27.0187C83.0364 27.3535 82.7638 27.6179 82.4548 27.8118C82.0005 27.5122 81.5007 27.2566 80.9555 27.0451C80.4102 26.8336 79.7832 26.7278 79.0744 26.7278C78.1476 26.7278 77.357 26.9217 76.7027 27.3095C76.0666 27.6796 75.5759 28.226 75.2306 28.9487C74.9035 29.6537 74.7399 30.5086 74.7399 31.5132C74.7399 33.0643 75.1397 34.2452 75.9394 35.056C76.7572 35.8668 77.884 36.2722 79.3198 36.2722C80.0649 36.2722 80.6919 36.1752 81.2008 35.9813C81.7279 35.7875 82.2277 35.5671 82.7002 35.3204C83.0092 35.5495 83.2454 35.8403 83.409 36.1928C83.5907 36.5454 83.6816 36.9508 83.6816 37.409C83.6816 37.8144 83.5726 38.1845 83.3545 38.5194C83.1364 38.8543 82.7638 39.1363 82.2368 39.3655C81.9096 39.5065 81.4462 39.6475 80.8464 39.7885C80.2467 39.9295 79.5197 40 78.6655 40C77.0298 40 75.5396 39.7004 74.1947 39.1011C72.868 38.5018 71.8048 37.5765 71.0051 36.325C70.2236 35.0736 69.8329 33.4697 69.8329 31.5132C69.8329 29.6801 70.2145 28.1379 70.9778 26.8865C71.7411 25.6174 72.768 24.6568 74.0584 24.0047C75.3669 23.3349 76.8027 23 78.3657 23C79.4743 23 80.4193 23.1234 81.2008 23.3701C81.9823 23.6169 82.5821 23.9518 83.0001 24.3748C83.4181 24.7978 83.6271 25.2825 83.6271 25.8289Z" fill="black"/>
<path d="M86.2248 27.8383H90.9955V39.4977C90.7956 39.5505 90.4866 39.6034 90.0686 39.6563C89.6506 39.7092 89.2235 39.7356 88.7874 39.7356C87.8423 39.7356 87.1789 39.577 86.7973 39.2597C86.4156 38.9248 86.2248 38.352 86.2248 37.5412V27.8383ZM90.9955 33.9456H86.2248V23.4495C86.4429 23.4142 86.7609 23.3701 87.1789 23.3173C87.6151 23.2468 88.0331 23.2115 88.433 23.2115C89.3417 23.2115 89.9959 23.3613 90.3958 23.661C90.7956 23.9606 90.9955 24.5422 90.9955 25.4059V33.9456Z" fill="black"/>
<path d="M94.531 28.9487H98.92C98.9927 29.7595 99.0382 30.535 99.0564 31.2753C99.0927 32.0156 99.1109 32.7206 99.1109 33.3904C99.1109 34.0425 99.1109 34.6858 99.1109 35.3204V39.5241C98.9291 39.5594 98.6293 39.6034 98.2113 39.6563C97.8114 39.7092 97.4025 39.7356 96.9845 39.7356C96.0758 39.7356 95.4397 39.5858 95.0762 39.2862C94.7127 38.9689 94.531 38.4137 94.531 37.6205V28.9487ZM109.497 33.972H105.108C104.999 32.7382 104.936 31.6013 104.918 30.5614C104.918 29.5215 104.918 28.5345 104.918 27.6003V23.423C105.117 23.3878 105.417 23.3437 105.817 23.2908C106.217 23.2379 106.626 23.2115 107.044 23.2115C107.953 23.2115 108.589 23.3701 108.952 23.6874C109.316 23.987 109.497 24.5334 109.497 25.3266V33.972ZM109.497 32.5443V38.9689C109.243 39.198 108.87 39.3831 108.38 39.5241C107.907 39.6651 107.335 39.7356 106.662 39.7356C105.99 39.7356 105.354 39.6387 104.754 39.4448C104.154 39.2509 103.664 38.7838 103.282 38.0435L100.583 32.703C100.401 32.3328 100.229 31.9891 100.065 31.6718C99.9196 31.337 99.7742 30.9933 99.6288 30.6407C99.4834 30.2882 99.3199 29.9005 99.1381 29.4774L94.531 30.4557V24.3219C94.7854 23.9694 95.1762 23.705 95.7032 23.5288C96.2303 23.3525 96.7937 23.2644 97.3934 23.2644C98.0659 23.2644 98.702 23.3701 99.3017 23.5816C99.9196 23.7755 100.41 24.2338 100.774 24.9565L103.5 30.297C103.682 30.6496 103.845 30.9933 103.991 31.3281C104.154 31.663 104.309 32.0067 104.454 32.3593C104.618 32.7118 104.781 33.0995 104.945 33.5225L109.497 32.5443Z" fill="black"/>
<path d="M128 31.5132V36.9596C128 37.506 127.9 37.9114 127.7 38.1757C127.5 38.4401 127.182 38.6957 126.746 38.9425C126.237 39.2245 125.492 39.4712 124.511 39.6827C123.547 39.8942 122.584 40 121.621 40C119.876 40 118.286 39.7092 116.85 39.1275C115.433 38.5459 114.306 37.6293 113.47 36.3779C112.634 35.1265 112.216 33.5137 112.216 31.5397C112.216 29.689 112.634 28.1291 113.47 26.86C114.324 25.591 115.46 24.6304 116.877 23.9782C118.313 23.3261 119.912 23 121.675 23C122.82 23 123.811 23.1234 124.647 23.3701C125.501 23.5993 126.155 23.9342 126.61 24.3748C127.064 24.7978 127.291 25.3002 127.291 25.8818C127.291 26.3224 127.173 26.719 126.937 27.0715C126.701 27.4064 126.428 27.6708 126.119 27.8647C125.665 27.6003 125.092 27.3447 124.402 27.098C123.711 26.8512 122.92 26.7278 122.03 26.7278C121.067 26.7278 120.212 26.9305 119.467 27.3359C118.722 27.7237 118.14 28.2789 117.722 29.0016C117.323 29.7066 117.123 30.5438 117.123 31.5132C117.123 32.5708 117.314 33.4609 117.695 34.1835C118.095 34.8885 118.64 35.4173 119.331 35.7698C120.022 36.1223 120.812 36.2986 121.703 36.2986C122.102 36.2986 122.448 36.2633 122.739 36.1928C123.048 36.1047 123.284 36.0254 123.447 35.9549V33.4168H120.53C120.421 33.2229 120.312 32.9673 120.203 32.6501C120.112 32.3328 120.067 31.9979 120.067 31.6454C120.067 31.0109 120.212 30.5526 120.503 30.2706C120.812 29.9886 121.203 29.8476 121.675 29.8476H126.283C126.828 29.8476 127.246 29.9974 127.537 30.297C127.846 30.5791 128 30.9844 128 31.5132Z" fill="black"/>
</svg>
