<svg width="154" height="57" viewBox="0 0 154 57" fill="none" xmlns="http://www.w3.org/2000/svg">
<g clip-path="url(#clip0_4_342)">
<path d="M79.2392 18.8796L86.5411 18.4077C86.7077 19.6015 87.0131 20.49 87.5129 21.1285C88.3181 22.1281 89.4286 22.6278 90.9001 22.6278C91.9829 22.6278 92.8436 22.3779 93.4267 21.8504C93.982 21.434 94.3151 20.7676 94.3151 20.0735C94.3151 19.4072 94.0097 18.7686 93.4822 18.3521C92.9269 17.8524 91.622 17.3526 89.5675 16.9084C86.208 16.1587 83.7925 15.1592 82.3765 13.8821C80.9605 12.6882 80.1554 10.9391 80.2109 9.07887C80.2109 7.80171 80.5996 6.52456 81.3215 5.46951C82.1544 4.27565 83.2927 3.33167 84.6532 2.80415C86.1247 2.16557 88.1792 1.8324 90.7613 1.8324C93.9264 1.8324 96.3419 2.41545 98.0078 3.60931C99.6736 4.77541 100.673 6.66338 100.979 9.24545L93.7598 9.66191C93.5655 8.55134 93.1768 7.74618 92.5382 7.21866C91.8996 6.69114 91.0667 6.44126 89.9839 6.44126C89.0955 6.44126 88.4291 6.63561 87.9849 6.99655C87.5684 7.32972 87.2908 7.82947 87.3185 8.38476C87.3185 8.80122 87.5407 9.18992 87.8738 9.4398C88.2348 9.77297 89.0955 10.0784 90.4559 10.356C93.8154 11.0779 96.2031 11.7998 97.6746 12.5494C99.1461 13.299 100.201 14.2153 100.84 15.2981C101.506 16.4086 101.839 17.6858 101.811 18.9907C101.811 20.5455 101.367 22.1003 100.479 23.4052C99.5626 24.7657 98.2854 25.8207 96.7862 26.4593C95.2036 27.1534 93.2046 27.5143 90.8168 27.5143C86.5967 27.5143 83.6814 26.7092 82.0433 25.0711C80.4053 23.433 79.4335 21.3784 79.2392 18.8796ZM1.74915 27.0979V2.27663H14.5485C16.9084 2.27663 18.7409 2.47098 19.9903 2.88744C21.2119 3.27614 22.2947 4.0813 23.0166 5.16411C23.8217 6.35797 24.2104 7.74618 24.1827 9.18992C24.2659 11.6332 23.0166 13.9654 20.8787 15.187C20.0458 15.659 19.1296 15.9922 18.1856 16.1587C18.8797 16.3531 19.5738 16.6863 20.1846 17.075C20.6566 17.4637 21.0453 17.9079 21.4062 18.3799C21.8227 18.8519 22.1836 19.3794 22.489 19.9347L26.2094 27.1256H17.4915L13.3824 19.4905C12.8548 18.5187 12.4106 17.8801 11.9942 17.5747C11.4389 17.186 10.7725 16.9917 10.1062 16.9917H9.43984V27.0701H1.74915V27.0979ZM9.43984 12.3273H12.6883C13.3824 12.2718 14.0487 12.1607 14.715 11.9941C15.2148 11.9108 15.659 11.6332 15.9644 11.2167C16.7141 10.2172 16.603 8.80122 15.6868 7.94053C15.187 7.52407 14.2153 7.30195 12.8271 7.30195H9.43984V12.3273ZM0 48.3653L7.302 47.8933C7.46858 49.0871 7.77399 49.9756 8.27374 50.6142C9.05114 51.6137 10.1895 52.1412 11.661 52.1412C12.7438 52.1412 13.6045 51.8913 14.1875 51.3638C14.7428 50.9196 15.076 50.281 15.076 49.5869C15.076 48.9206 14.7706 48.282 14.2431 47.8655C13.6878 47.3658 12.3829 46.866 10.3005 46.4218C6.94106 45.6721 4.52557 44.6726 3.1096 43.3955C1.69362 42.2016 0.888456 40.4525 0.943984 38.5923C0.943984 37.3151 1.33268 36.0379 2.05455 34.9829C2.88748 33.789 4.02582 32.8451 5.38626 32.3175C6.85777 31.679 8.91232 31.3458 11.4944 31.3458C14.6595 31.3458 17.075 31.9288 18.7409 33.1227C20.4067 34.3166 21.3785 36.1768 21.6839 38.7588L14.4652 39.1753C14.2708 38.0647 13.8821 37.2596 13.2435 36.7321C12.6327 36.2045 11.772 35.9547 10.6892 35.9824C9.80078 35.9824 9.13444 36.1768 8.69021 36.5655C8.24598 36.8986 7.9961 37.3984 8.02387 37.9537C8.02387 38.3701 8.24598 38.7588 8.57915 39.0087C8.94009 39.3419 9.80078 39.6473 11.1612 39.9249C14.5207 40.6468 16.9084 41.3687 18.3799 42.1183C19.8514 42.868 20.9065 43.7842 21.5451 44.867C22.2114 45.9775 22.5446 47.2547 22.5446 48.5319C22.5446 50.0867 22.0726 51.6137 21.2119 52.9186C20.2957 54.2791 19.0185 55.3341 17.5192 55.9727C15.9367 56.6668 13.9376 57.0277 11.5499 57.0277C7.32976 57.0277 4.41451 56.2226 2.77642 54.5845C1.13833 52.9186 0.222114 50.8641 0 48.3653H0Z" fill="white"/>
<path d="M36.9264 46.4218L43.6454 48.4486C43.2844 50.1422 42.5348 51.7525 41.5075 53.1685C40.5635 54.4179 39.3141 55.3897 37.8982 56.0282C36.4544 56.6668 34.622 57 32.4009 57C29.7077 57 27.4866 56.6113 25.793 55.8339C24.0716 55.0565 22.6001 53.6683 21.3507 51.697C20.1013 49.7258 19.4905 47.1992 19.4905 44.1174C19.4905 40.0083 20.5733 36.8431 22.7667 34.6498C24.96 32.4564 28.0419 31.3458 32.0399 31.3458C35.1773 31.3458 37.6205 31.9844 39.4252 33.2338C41.2021 34.5109 42.5348 36.4544 43.4233 39.0643L36.6488 40.5636C36.4822 39.9805 36.2323 39.3975 35.8991 38.8977C35.4827 38.3147 34.9552 37.8704 34.3166 37.5373C33.678 37.2041 32.9561 37.0653 32.2343 37.0653C30.4851 37.0653 29.1524 37.7594 28.2362 39.1753C27.5421 40.2026 27.1812 41.8407 27.1812 44.0618C27.1812 46.8105 27.5976 48.6985 28.4306 49.7258C29.2635 50.753 30.4296 51.2528 31.9566 51.2528C33.4281 51.2528 34.5387 50.8363 35.2883 50.0312C36.038 49.1705 36.5933 47.9766 36.9264 46.4218ZM52.6132 31.7623H60.2762V40.4525H68.661V31.7623H76.3794V56.5835H68.661V46.5329H60.2762V56.5835H52.6132V31.7623Z" fill="white"/>
<path d="M75.3243 44.173C75.3243 40.1194 76.4627 36.9543 78.7116 34.7054C80.9605 32.4564 84.1256 31.3181 88.1514 31.3181C92.2883 31.3181 95.4534 32.4287 97.7023 34.6498C99.9512 36.871 101.062 39.9806 101.062 43.9786C101.062 46.8939 100.562 49.2538 99.5903 51.114C98.6463 52.9465 97.1748 54.4457 95.3701 55.4452C93.5099 56.4725 91.2055 57 88.4568 57C85.6526 57 83.3482 56.5558 81.5158 55.6674C79.6278 54.7234 78.073 53.2519 77.0457 51.4472C75.9074 49.5037 75.3243 47.0882 75.3243 44.173ZM82.9873 44.2007C82.9873 46.6995 83.4593 48.5042 84.3755 49.6148C85.2917 50.6976 86.5689 51.2528 88.1792 51.2528C89.8173 51.2528 91.0944 50.7253 92.0107 49.6425C92.9269 48.5597 93.3711 46.644 93.3711 43.8676C93.3711 41.5354 92.8991 39.814 91.9551 38.7589C91.0111 37.6761 89.734 37.1486 88.1237 37.1486C86.7077 37.0931 85.3472 37.7039 84.4033 38.7867C83.4593 39.8695 82.9873 41.6742 82.9873 44.2007ZM108.919 44.173C108.919 40.1194 110.057 36.9543 112.306 34.7054C114.555 32.4564 117.72 31.3181 121.746 31.3181C125.883 31.3181 129.076 32.4287 131.297 34.6498C133.518 36.871 134.657 39.9806 134.657 43.9786C134.657 46.8939 134.157 49.2538 133.185 51.114C132.241 52.9465 130.77 54.4457 128.965 55.4452C127.105 56.4725 124.8 57 122.052 57C119.247 57 116.943 56.5558 115.111 55.6674C113.223 54.7234 111.668 53.2519 110.64 51.4472C109.502 49.5037 108.919 47.0882 108.919 44.173ZM116.582 44.2007C116.582 46.6995 117.054 48.5042 117.97 49.6148C118.886 50.6976 120.164 51.2528 121.774 51.2528C123.412 51.2528 124.689 50.7253 125.605 49.6425C126.522 48.5597 126.966 46.644 126.966 43.8676C126.966 41.5354 126.494 39.814 125.55 38.7589C124.606 37.6761 123.329 37.1486 121.718 37.1486C120.302 37.0931 118.914 37.7039 117.998 38.7867C117.054 39.8695 116.582 41.6742 116.582 44.2007Z" fill="white"/>
<path d="M133.851 31.7623H141.514V50.4754H153.481V56.5836H133.824V31.7623H133.851Z" fill="white"/>
<path d="M125.405 30.3298C133.12 24.516 135.499 14.6606 130.719 8.31723C125.939 1.97384 115.809 1.54455 108.094 7.35838C100.379 13.1722 98.0004 23.0276 102.781 29.371C107.561 35.7144 117.69 36.1437 125.405 30.3298Z" fill="white"/>
<path d="M125.405 30.3298C133.12 24.516 135.499 14.6606 130.719 8.31723C125.939 1.97384 115.809 1.54455 108.094 7.35838C100.379 13.1722 98.0004 23.0276 102.781 29.371C107.561 35.7144 117.69 36.1437 125.405 30.3298Z" fill="white"/>
<path d="M108.947 17.0195L111.723 15.076L115.138 19.9347C115.721 20.7121 116.166 21.5451 116.499 22.4613C116.693 23.1554 116.638 23.905 116.36 24.5714C115.999 25.4043 115.416 26.0984 114.639 26.5982C113.722 27.2367 112.945 27.5977 112.279 27.7087C111.64 27.8198 110.974 27.7087 110.363 27.4311C109.697 27.0979 109.114 26.6259 108.669 26.0151L111.057 23.794C111.251 24.0994 111.501 24.377 111.779 24.5991C111.973 24.738 112.195 24.8213 112.445 24.8213C112.64 24.8213 112.834 24.738 112.973 24.6269C113.25 24.4603 113.445 24.1271 113.417 23.794C113.334 23.322 113.139 22.85 112.834 22.4891L108.947 17.0195ZM117.276 20.1013L119.803 18.1023C120.08 18.4355 120.441 18.6854 120.83 18.8242C121.385 18.9908 121.968 18.8797 122.44 18.5188C122.774 18.2967 123.051 17.9912 123.162 17.6025C123.329 17.1028 123.051 16.5475 122.551 16.3809C122.468 16.3532 122.385 16.3254 122.302 16.3254C121.968 16.2976 121.385 16.4365 120.525 16.7974C119.109 17.3804 117.998 17.6025 117.165 17.5193C116.36 17.436 115.61 17.0195 115.166 16.3254C114.833 15.8534 114.666 15.2981 114.639 14.7428C114.639 14.1043 114.805 13.4657 115.166 12.9382C115.694 12.1885 116.332 11.5499 117.11 11.0502C118.276 10.245 119.303 9.85632 120.191 9.85632C121.08 9.85632 121.913 10.2728 122.69 11.1335L120.191 13.1047C119.692 12.4662 118.748 12.3273 118.109 12.8271L118.026 12.9104C117.748 13.077 117.554 13.3269 117.443 13.6323C117.36 13.8544 117.415 14.1043 117.554 14.2986C117.665 14.4374 117.832 14.5485 118.026 14.5485C118.248 14.5762 118.637 14.4652 119.192 14.2153C120.58 13.6323 121.635 13.2991 122.357 13.188C122.968 13.077 123.606 13.1325 124.19 13.3824C124.717 13.6045 125.161 13.9932 125.467 14.4652C125.855 15.0205 126.078 15.6868 126.105 16.3809C126.133 17.1028 125.939 17.7969 125.55 18.4077C125.05 19.1573 124.412 19.7959 123.662 20.2957C122.135 21.3507 120.886 21.795 119.886 21.6284C118.803 21.4618 117.915 20.9065 117.276 20.1013Z" fill="#292827"/>
</g>
<defs>
<clipPath id="clip0_4_342">
<rect width="153.481" height="57" fill="white"/>
</clipPath>
</defs>
</svg>
