<?xml version="1.0" encoding="UTF-8" standalone="no"?>
<!-- Created with Inkscape (http://www.inkscape.org/) -->
<svg
   version="1.1"
   id="svg2"
   width="500.00006"
   height="500"
   viewBox="0 0 500.00006 500"
   xml:space="preserve"
   xmlns="http://www.w3.org/2000/svg">
  <defs
     id="defs6" />
  <g
     id="layer1"
     transform="translate(-824.22504,55.735157)">
    <g
       id="g2300"
       transform="matrix(0.73242185,0,0,0.73242185,1409.9496,42.298521)">
      <path
         style="fill:#dde3e3;stroke-width:1.33333"
         d="m -686.06928,268.43806 c -6.74153,-3.41968 -14.29007,-11.80588 -16.41088,-18.23198 -0.83396,-2.52694 -1.28353,-8.71379 -0.99904,-13.74855 0.60694,-10.74129 4.75375,-17.88719 14.25534,-24.56515 5.34327,-3.7554 6.56598,-4.03724 17.51457,-4.03724 10.9486,0 12.1713,0.28184 17.51458,4.03724 3.15936,2.22048 7.56104,6.62216 9.78152,9.78152 3.7554,5.34328 4.03724,6.56598 4.03724,17.51458 0,10.9486 -0.28184,12.17129 -4.03724,17.51457 -2.22048,3.15936 -6.61896,7.5588 -9.77442,9.77653 -4.97465,3.49632 -7.09626,4.08635 -15.96276,4.43935 -8.38298,0.33375 -11.25149,-0.11333 -15.91891,-2.48087 z m 405.33334,0 c -6.74152,-3.41968 -14.29007,-11.80588 -16.41087,-18.23198 -0.83396,-2.52694 -1.28353,-8.71379 -0.99904,-13.74855 0.60694,-10.74129 4.75375,-17.88719 14.25534,-24.56515 5.34328,-3.7554 6.56597,-4.03724 17.51457,-4.03724 10.9486,0 12.1713,0.28184 17.51458,4.03724 3.15936,2.22048 7.56104,6.62216 9.78152,9.78152 3.7554,5.34328 4.03724,6.56598 4.03724,17.51458 0,10.9486 -0.28184,12.17129 -4.03724,17.51457 -2.22048,3.15936 -6.61896,7.5588 -9.77442,9.77653 -4.97465,3.49632 -7.09626,4.08635 -15.96276,4.43935 -8.38299,0.33375 -11.25149,-0.11333 -15.91892,-2.48087 z"
         id="path2308" />
      <path
         style="fill:#fec129;stroke-width:1.33333"
         d="m -557.16386,190.18847 c -9.14064,-8.54056 -9.49516,-20.67248 -0.85653,-29.3111 8.63863,-8.63863 20.77055,-8.28411 29.31111,0.85653 4.65937,4.98676 5,5.91177 5,13.57839 0,7.9361 -0.20599,8.43305 -5.82456,14.05162 -5.61857,5.61858 -6.11552,5.82456 -14.05163,5.82456 -7.66661,0 -8.59162,-0.34062 -13.57839,-5 z"
         id="path2306" />
      <path
         style="fill:#ef5965;stroke-width:1.33333"
         d="m -613.9665,287.1276 c 18.90644,-22.08792 22.44031,-56.63192 8.51882,-83.27246 -8.66056,-16.57309 -28.65071,-32.63915 -45.77652,-36.79053 -3.56681,-0.86462 -6.93135,-1.96672 -7.47681,-2.44914 -1.0608,-0.9382 39.59109,-36.90576 48.80875,-43.18452 8.00303,-5.45138 29.07126,-15.18909 38.61758,-17.849 6.93905,-1.93344 14.62389,-2.30155 48.92609,-2.3436 40.59726,-0.0497 40.70342,-0.0425 44.63754,3.04796 8.67677,6.8161 8.64998,6.67412 8.65965,45.90216 l 0.009,35.66667 h 74.77056 74.77058 l -4.61726,5.39421 c -10.98884,12.83799 -16.92388,29.73593 -16.92388,48.18479 0,18.23511 5.87124,34.78092 16.92388,47.69346 l 4.61726,5.39421 H -469.0424 -618.58354 Z m 84.43266,-97.76369 c 5.61857,-5.61857 5.82456,-6.11552 5.82456,-14.05162 0,-7.66662 -0.34063,-8.59163 -5,-13.57839 -8.54056,-9.14064 -20.67248,-9.49516 -29.31111,-0.85653 -8.63863,8.63862 -8.28411,20.77054 0.85653,29.3111 4.98677,4.65938 5.91178,5 13.57839,5 7.93611,0 8.43306,-0.20598 14.05163,-5.82456 z m 321.60424,96.82457 c 14.26329,-17.1356 20.00098,-43.92483 14.18785,-66.24295 -1.11787,-4.29176 -1.86787,-7.94828 -1.66667,-8.12557 0.2012,-0.17731 6.06582,0.19304 13.03248,0.82298 6.96667,0.62995 17.46667,1.44823 23.33334,1.81842 29.89099,1.88608 34.58096,3.41169 39.37479,12.80836 2.29208,4.49285 2.62521,7.89096 2.62521,26.77801 0,19.39169 -0.29609,22.24379 -2.85881,27.53767 -5.05463,10.44146 -7.17326,10.87296 -53.5539,10.90713 l -39.74603,0.0293 5.27174,-6.33333 z m -541.70736,-36.21631 c -0.41345,-0.66897 -5.09886,-3.68733 -10.41203,-6.70747 -5.31316,-3.02013 -12.3603,-7.13764 -15.6603,-9.15001 -3.3,-2.01237 -8.08014,-4.84403 -10.62254,-6.29255 -6.73235,-3.8357 -11.57235,-9.27478 -12.53461,-14.08606 -0.46357,-2.31784 -0.84285,-20.55054 -0.84285,-40.5171 0,-35.55203 0.0627,-36.39585 3.03173,-40.8016 1.66745,-2.47433 5.05618,-5.86307 7.53051,-7.53051 4.40003,-2.96518 5.27936,-3.03173 40.0596,-3.03173 41.95766,0 45.41675,0.64029 55.81449,10.3314 5.33794,4.97519 7.95289,8.99588 12.18043,18.72841 2.96079,6.81623 5.38324,12.66623 5.38324,13 0,0.33378 -1.56339,0.60686 -3.4742,0.60686 -5.88343,0 -19.2385,3.98494 -27.75251,8.28092 -11.80372,5.95586 -26.13112,20.77069 -32.06807,33.15904 -2.82208,5.88871 -4.70522,11.83431 -4.70522,14.85576 0,2.77068 -0.6,5.03761 -1.33333,5.03761 -0.79532,0 -1.33333,5.11111 -1.33333,12.66667 0,11.36525 -1.04527,15.03549 -3.26101,11.45036 z"
         id="path2304" />
      <path
         style="fill:#3a435a;fill-opacity:1;stroke-width:1.33333"
         d="m -690.01308,311.93933 c -20.15874,-4.88472 -39.6077,-20.63603 -48.97122,-39.66077 -4.67139,-9.4913 -5.1426,-11.54184 -6.41891,-27.93256 -1.03001,-13.22766 -0.9901,-17.8184 0.15825,-18.20119 0.84462,-0.28153 1.53567,-2.72881 1.53567,-5.4384 0,-8.61311 8.21838,-23.37108 19.03855,-34.18803 14.89332,-14.88888 31.71294,-22.02089 51.82058,-21.97343 22.3889,0.0528 38.95932,6.77026 53.84808,21.82919 15.19516,15.36884 21.95946,31.63755 21.95946,52.81434 0,21.22472 -6.78976,37.50385 -21.97629,52.69037 -10.56833,10.56835 -21.4874,16.93898 -34.1478,19.92326 -10.21512,2.40786 -27.21435,2.47118 -36.84637,0.13722 z m 35.82547,-45.45975 c 3.15546,-2.21773 7.55394,-6.61717 9.77442,-9.77653 3.7554,-5.34328 4.03724,-6.56597 4.03724,-17.51457 0,-10.9486 -0.28184,-12.1713 -4.03724,-17.51458 -2.22048,-3.15936 -6.62216,-7.56104 -9.78152,-9.78152 -5.34328,-3.7554 -6.56598,-4.03724 -17.51458,-4.03724 -10.94859,0 -12.1713,0.28184 -17.51457,4.03724 -9.50159,6.67796 -13.6484,13.82386 -14.25534,24.56515 -0.62522,11.06495 1.04192,16.6216 7.11597,23.71776 7.24563,8.46489 13.99246,11.23016 26.21286,10.74364 8.8665,-0.353 10.98811,-0.94303 15.96276,-4.43935 z m 368.62242,45.34621 c -12.67143,-3.47919 -23.75019,-10.05235 -33.50112,-19.87659 -15.30762,-15.42268 -21.9763,-31.35831 -21.9763,-52.51506 0,-21.47985 6.72916,-37.68892 21.9763,-52.93604 15.18652,-15.18653 31.46565,-21.97629 52.69037,-21.97629 20.08312,0 36.70564,6.53837 51.29768,20.17764 8.54851,7.99032 18.03566,22.43421 18.03566,27.45869 0,1.66668 0.55028,3.03034 1.22285,3.03034 1.97112,0 4.11048,12.59858 4.11048,24.2065 0,21.1091 -6.85585,37.57899 -21.81504,52.40644 -15.73708,15.59851 -31.79384,22.15581 -53.71075,21.9345 -6.49416,-0.0656 -14.74271,-0.92513 -18.33013,-1.91013 z m 36.71093,-45.34621 c 3.15546,-2.21773 7.55394,-6.61717 9.77442,-9.77653 3.7554,-5.34328 4.03724,-6.56597 4.03724,-17.51457 0,-10.9486 -0.28184,-12.1713 -4.03724,-17.51458 -2.22048,-3.15936 -6.62216,-7.56104 -9.78152,-9.78152 -5.34328,-3.7554 -6.56598,-4.03724 -17.51458,-4.03724 -10.9486,0 -12.17129,0.28184 -17.51457,4.03724 -9.50159,6.67796 -13.6484,13.82386 -14.25534,24.56515 -0.62522,11.06495 1.04191,16.6216 7.11596,23.71776 7.24563,8.46489 13.99247,11.23016 26.21287,10.74364 8.8665,-0.353 10.98811,-0.94303 15.96276,-4.43935 z"
         id="path2302" />
    </g>
    <rect
       style="fill:#d3d8e1;fill-opacity:0;stroke-width:0"
       id="rect2429"
       width="500"
       height="500"
       x="824.22504"
       y="-55.735157" />
  </g>
</svg>