<svg width="27" height="81" viewBox="0 0 27 81" fill="none" xmlns="http://www.w3.org/2000/svg">
  <path d="M1.08333 81C0.485025 81 -2.12011e-08 80.515 -4.7354e-08 79.9167L-5.20894e-07 69.0833C-5.47047e-07 68.485 0.485024 68 1.08333 68L11.9167 68C12.515 68 13 68.485 13 69.0833L13 79.9167C13 80.515 12.515 81 11.9167 81L1.08333 81Z" fill="white"/>
  <path d="M15.0833 68C14.485 68 14 67.5178 14 66.9231L14 55.0769C14 54.4822 14.485 54 15.0833 54L25.9167 54C26.515 54 27 54.4822 27 55.0769L27 66.9231C27 67.5178 26.515 68 25.9167 68L15.0833 68Z" fill="white"/>
  <path d="M1.08333 54C0.485025 54 -2.12011e-08 53.515 -4.7354e-08 52.9167L-5.20894e-07 42.0833C-5.47047e-07 41.485 0.485024 41 1.08333 41L11.9167 41C12.515 41 13 41.485 13 42.0833L13 52.9167C13 53.515 12.515 54 11.9167 54L1.08333 54Z" fill="white"/>
  <path d="M25.9167 -4.7354e-08C26.515 -2.12011e-08 27 0.485025 27 1.08333L27 11.9167C27 12.515 26.515 13 25.9167 13L15.0833 13C14.485 13 14 12.515 14 11.9167L14 1.08333C14 0.485024 14.485 -5.47047e-07 15.0833 -5.20894e-07L25.9167 -4.7354e-08Z" fill="white"/>
  <path d="M11.9167 13C12.515 13 13 13.4822 13 14.0769L13 25.9231C13 26.5178 12.515 27 11.9167 27L1.08333 27C0.485023 27 -2.49823e-06 26.5178 -2.47223e-06 25.9231L-1.95442e-06 14.0769C-1.92842e-06 13.4822 0.485023 13 1.08333 13L11.9167 13Z" fill="white"/>
  <path d="M25.9167 27C26.515 27 27 27.485 27 28.0833L27 38.9167C27 39.515 26.515 40 25.9167 40L15.0833 40C14.485 40 14 39.515 14 38.9167L14 28.0833C14 27.485 14.485 27 15.0833 27L25.9167 27Z" fill="white"/>
</svg>