<?xml version="1.0" encoding="UTF-8" standalone="no"?>
<!-- Created with Inkscape (http://www.inkscape.org/) -->
<svg
   version="1.1"
   id="svg2"
   width="501.65222"
   height="501.65228"
   viewBox="0 0 501.65222 501.65228"
   xmlns="http://www.w3.org/2000/svg">
   <defs
     id="defs6" />
   <g
     id="layer1"
     transform="translate(-680.61548,212.15959)">
      <g
       id="g2088">
         <rect
         style="fill:#d3d8e1;fill-opacity:0;stroke-width:0"
         id="rect2065"
         width="501.65225"
         height="501.65225"
         x="680.61548"
         y="-212.15959" />
         <g
         id="g2011"
         transform="translate(-5.1998469,-22.04218)">
            <g
           id="g311"
           transform="translate(307.51511,-117.81456)">
               <g
             id="g428"
             transform="translate(379.91808,-78.077808)">
                  <path
               style="fill:#dce2e3"
               d="m 163.5,347 c 0.99549,-1.1 2.03498,-2 2.30998,-2 0.275,0 -0.31449,0.9 -1.30998,2 -0.99549,1.1 -2.03498,2 -2.30998,2 -0.275,0 0.31449,-0.9 1.30998,-2 z M 88.946167,344.25 85.5,340.5 l 3.75,3.44617 C 92.740419,347.15378 93.459787,348 92.696167,348 c -0.167108,0 -1.854608,-1.6875 -3.75,-3.75 z M 120,326.69264 c -4.90822,-1.54705 -13.27886,-10.21482 -14.78388,-15.30866 -2.77033,-9.37635 -0.81722,-16.85065 6.25,-23.91786 7.00794,-7.00794 14.59057,-9.02745 23.67544,-6.30556 8.28292,2.48162 16.82448,13.45553 16.84867,21.64662 0.0214,7.25149 -2.17749,12.51051 -7.42501,17.75804 -6.91769,6.91769 -15.36951,9.02587 -24.56522,6.12742 z m 280,0 c -4.90822,-1.54705 -13.27886,-10.21482 -14.78388,-15.30866 -2.77033,-9.37635 -0.81722,-16.85065 6.25,-23.91786 10.23479,-10.2348 24.35793,-10.01688 33.83333,0.52204 9.2982,10.34184 9.00516,22.74553 -0.76973,32.58122 -6.86996,6.91269 -15.32722,9.02385 -24.52972,6.12326 z M 149.22809,218.57931 c -10.56435,-2.29549 -32.48533,-10.93301 -32.48533,-12.80018 0,-3.70926 39.396,-22.51434 47.16679,-22.51434 2.12631,0 2.34769,1.76668 2.34769,18.73521 v 18.73521 l -4.34924,-0.17287 c -2.39209,-0.0951 -8.09806,-0.98744 -12.67991,-1.98303 z m 38.07918,-18.60753 V 179.63 l 17.39594,0.3531 17.39594,0.35309 4.05951,15.83279 c 2.23272,8.70802 4.36299,17.70293 4.73392,19.98868 l 0.67441,4.1559 h -22.12986 -22.12986 z m 67.54881,21.2504 c 0.20886,-0.62658 -1.95107,-6.6953 -3.61506,-13.59984 -1.66399,-6.90453 -3.63261,-14.48132 -4.3747,-16.8373 -1.76962,-5.61817 -1.72242,-11.75723 0.0904,-11.75723 4.38747,0 13.20892,5.82823 33.98573,22.45402 12.7372,10.19241 23.15854,19.03899 23.15854,19.65907 0,1.42121 -49.76031,1.62752 -49.24491,0.0813 z"
               id="path325" />
                  <path
               style="fill:#fdc028"
               d="M 1,289 C 4.5058751,273.03679 5.6938357,257.42405 6.6258176,255 48.326162,204.20272 58.455777,205.18756 131.76386,163 c 10.10382,-4.04805 16.62632,-6.52941 26.7361,-8.52443 6.50732,-1.2257 104.5,-1.69673 104.5,-0.50231 45.6782,29.08823 55.07902,32.84139 86.50004,62.92862 l 40.75,0.0491 c 123.47262,-7.40126 173.67673,137.61072 -33.35118,109.30303 0.75286,0 -0.51993,-0.0511 -1.89882,-0.25402 -0.65191,-0.0959 -29.37415,1 -86.12244,1 C 172.58958,318.12055 1,367.8707 1,289 Z m 165.2444,-86.20778 c -0.0808,-4.47838 -0.17994,-18.99509 -1.1523,-19.23103 -2.49841,-2.01831 -31.69314,11.8409 -41.78623,17.21706 -4.08158,2.7045 -7.61814,4.09781 -6.12904,5.52584 1.49593,1.43456 13.85768,6.82716 15.85062,7.33193 10.3938,3.16974 15.13795,6.85069 33.12688,6.70429 z m 50.4797,-19.86624 -26.59507,0.085 L 191,200 v 17 h 19.10941 l 18.76858,-0.0904 c -3.64862,-22.77979 -2.44995,-33.99642 -12.15389,-33.98365 z m 82.05143,34.49734 c -1.78378,-6.24497 -42.17809,-32.0799 -45.50241,-32.56475 -3.06189,-0.32811 -3.47649,-1.46265 -2.72551,2.65876 2.38061,11.10748 4.7613,18.36205 8.13469,29.03395 2.42876,2.2492 24.54449,1.64234 40.09323,0.87204 z"
               id="path321" />
                  <path
               style="fill:#e95b60"
               d="M 1.1719357,276.82521 C 1.4487067,267.81133 1.9653882,264.53059 3.7036076,260.75 L 5.8875391,256 H 16.321646 c 11.280583,0 15.715995,1.18852 19.266516,5.16268 6.725376,7.52784 5.446527,17.98312 -2.969288,24.27553 -2.431855,1.81827 -4.472335,2.1002 -17.276114,2.387 l -14.51856473,0.32522 z"
               id="path317" />
                  <path
               style="fill:#3a435a;fill-opacity:1"
               d="M 111.80401,357.61505 C 103.05658,355.02606 98.452932,352.24666 89.663903,344.24821 76.520489,332.52827 71.743683,311.09762 73.857706,296.25049 78.34365,271.09052 95.724649,253.90054 120.75,249.87354 c 19.37802,-3.11824 40.96452,6.44737 52.18897,23.12646 7.77823,11.55816 11.23979,26.08342 9.11546,38.25 -2.6943,15.43103 -7.39038,25.25534 -15.99124,33.45408 -14.29152,13.62334 -35.11276,18.57775 -54.25918,12.91097 z m 23.57997,-30.83117 c 5.49284,-1.62291 13.77699,-9.90706 15.3999,-15.3999 2.61791,-8.86048 0.86641,-16.33216 -5.48443,-23.39582 -9.14443,-10.17081 -22.84214,-10.70028 -33.31129,-1.28761 -10.68435,9.60615 -10.67351,25.0025 0.0244,34.62082 7.08696,6.37179 14.46079,8.09525 23.37143,5.46251 z m 258.88817,31.77926 c -8.7853,-2.12879 -18.02058,-7.33156 -24.72774,-13.93058 C 351.18746,325.66152 348.74839,294.99879 362.38276,274 c 11.72658,-17.41438 34.39727,-27.64687 53.39691,-24.10087 25.4487,4.74961 42.31438,21.79004 46.34206,46.82222 1.66935,19.09385 -3.71986,38.13149 -18.62173,50.5365 -6.98432,5.62075 -13.54767,8.92593 -22.14434,11.15147 -7.22575,1.87064 -19.70585,1.94151 -27.08351,0.15382 z m 21.11183,-31.77926 c 5.49284,-1.62291 13.77699,-9.90706 15.3999,-15.3999 2.61791,-8.86048 0.86641,-16.33216 -5.48443,-23.39582 -9.14443,-10.17081 -22.84214,-10.70028 -33.31129,-1.28761 -10.53831,9.47485 -10.75601,23.58817 -0.52204,33.84418 7.01469,7.0298 14.57073,9.00085 23.91786,6.23915 z"
               id="path315" />
               </g>
            </g>
            <circle
           style="fill:#d3d8e1;fill-opacity:1;stroke-width:0"
           id="path1974"
           cx="815.83057"
           cy="109.20351"
           r="28.073029" />
            <circle
           style="fill:#d3d8e1;fill-opacity:1;stroke-width:0"
           id="path1974-3"
           cx="1096.0896"
           cy="108.86465"
           r="28.073029" />
         </g>
      </g>
   </g>
</svg>