<svg width="154" height="57" viewBox="0 0 154 57" fill="none" xmlns="http://www.w3.org/2000/svg">
<g clip-path="url(#clip0_146_9)">
<path d="M79.2391 18.8798L86.5411 18.4078C86.7077 19.6016 87.0131 20.4901 87.5129 21.1287C88.3181 22.1282 89.4286 22.6279 90.9001 22.6279C91.9829 22.6279 92.8436 22.3781 93.4267 21.8505C93.982 21.4341 94.3151 20.7677 94.3151 20.0736C94.3151 19.4073 94.0097 18.7687 93.4822 18.3522C92.9269 17.8525 91.622 17.3527 89.5674 16.9085C86.208 16.1589 83.7925 15.1594 82.3765 13.8822C80.9605 12.6883 80.1554 10.9392 80.2109 9.07899C80.2109 7.80183 80.5996 6.52468 81.3215 5.46964C82.1544 4.27577 83.2927 3.33179 84.6532 2.80427C86.1247 2.16569 88.1792 1.83252 90.7613 1.83252C93.9264 1.83252 96.3419 2.41557 98.0078 3.60943C99.6736 4.77553 100.673 6.6635 100.979 9.24557L93.7599 9.66204C93.5655 8.55147 93.1768 7.7463 92.5382 7.21878C91.8996 6.69126 91.0667 6.44138 89.9839 6.44138C89.0955 6.44138 88.4291 6.63573 87.9849 6.99667C87.5684 7.32984 87.2908 7.8296 87.3185 8.38488C87.3185 8.80135 87.5407 9.19004 87.8738 9.43992C88.2348 9.77309 89.0955 10.0785 90.4559 10.3561C93.8154 11.078 96.2031 11.7999 97.6746 12.5495C99.1461 13.2992 100.201 14.2154 100.84 15.2982C101.506 16.4087 101.839 17.6859 101.811 18.9908C101.811 20.5456 101.367 22.1004 100.479 23.4053C99.5626 24.7658 98.2854 25.8208 96.7862 26.4594C95.2036 27.1535 93.2046 27.5144 90.8168 27.5144C86.5967 27.5144 83.6814 26.7093 82.0433 25.0712C80.4052 23.4331 79.4335 21.3785 79.2391 18.8798ZM1.74915 27.098V2.27675H14.5485C16.9084 2.27675 18.7409 2.4711 19.9903 2.88756C21.2119 3.27626 22.2947 4.08142 23.0166 5.16423C23.8217 6.35809 24.2104 7.7463 24.1827 9.19004C24.2659 11.6333 23.0166 13.9655 20.8787 15.1871C20.0458 15.6591 19.1296 15.9923 18.1856 16.1589C18.8797 16.3532 19.5738 16.6864 20.1846 17.0751C20.6566 17.4638 21.0453 17.908 21.4062 18.38C21.8227 18.852 22.1836 19.3795 22.489 19.9348L26.2094 27.1257H17.4915L13.3824 19.4906C12.8548 18.5188 12.4106 17.8803 11.9942 17.5748C11.4389 17.1861 10.7725 16.9918 10.1062 16.9918H9.43984V27.0702H1.74915V27.098ZM9.43984 12.3274H12.6883C13.3824 12.2719 14.0487 12.1608 14.715 11.9942C15.2148 11.9109 15.659 11.6333 15.9644 11.2168C16.7141 10.2173 16.603 8.80135 15.6868 7.94065C15.187 7.52419 14.2153 7.30208 12.8271 7.30208H9.43984V12.3274ZM0 48.3654L7.302 47.8934C7.46858 49.0873 7.77399 49.9757 8.27374 50.6143C9.05114 51.6138 10.1895 52.1413 11.661 52.1413C12.7438 52.1413 13.6045 51.8915 14.1875 51.3639C14.7428 50.9197 15.076 50.2811 15.076 49.587C15.076 48.9207 14.7706 48.2821 14.2431 47.8656C13.6878 47.3659 12.3829 46.8661 10.3005 46.4219C6.94106 45.6723 4.52557 44.6728 3.1096 43.3956C1.69362 42.2017 0.888456 40.4526 0.943984 38.5924C0.943984 37.3152 1.33268 36.0381 2.05455 34.983C2.88748 33.7892 4.02582 32.8452 5.38626 32.3177C6.85777 31.6791 8.91232 31.3459 11.4944 31.3459C14.6595 31.3459 17.075 31.929 18.7409 33.1228C20.4067 34.3167 21.3785 36.1769 21.6839 38.759L14.4652 39.1754C14.2708 38.0649 13.8821 37.2597 13.2435 36.7322C12.6327 36.2047 11.772 35.9548 10.6892 35.9825C9.80078 35.9825 9.13444 36.1769 8.69021 36.5656C8.24598 36.8988 7.9961 37.3985 8.02387 37.9538C8.02387 38.3703 8.24598 38.759 8.57915 39.0088C8.94009 39.342 9.80078 39.6474 11.1612 39.9251C14.5207 40.6469 16.9084 41.3688 18.3799 42.1184C19.8514 42.8681 20.9065 43.7843 21.5451 44.8671C22.2114 45.9777 22.5446 47.2548 22.5446 48.532C22.5446 50.0868 22.0726 51.6138 21.2119 52.9187C20.2957 54.2792 19.0185 55.3342 17.5192 55.9728C15.9367 56.6669 13.9376 57.0278 11.5499 57.0278C7.32976 57.0278 4.41451 56.2227 2.77642 54.5846C1.13833 52.9187 0.222114 50.8642 0 48.3654H0Z" fill="white"/>
<path d="M36.9264 46.4219L43.6454 48.4487C43.2844 50.1423 42.5348 51.7527 41.5075 53.1686C40.5635 54.418 39.3141 55.3898 37.8982 56.0284C36.4544 56.6669 34.622 57.0001 32.4009 57.0001C29.7077 57.0001 27.4866 56.6114 25.793 55.834C24.0716 55.0566 22.6001 53.6684 21.3507 51.6971C20.1013 49.7259 19.4905 47.1993 19.4905 44.1175C19.4905 40.0084 20.5733 36.8433 22.7667 34.6499C24.96 32.4565 28.0419 31.3459 32.0399 31.3459C35.1773 31.3459 37.6205 31.9845 39.4252 33.2339C41.2021 34.5111 42.5348 36.4546 43.4233 39.0644L36.6488 40.5637C36.4822 39.9806 36.2323 39.3976 35.8991 38.8978C35.4827 38.3148 34.9552 37.8705 34.3166 37.5374C33.678 37.2042 32.9561 37.0654 32.2343 37.0654C30.4851 37.0654 29.1524 37.7595 28.2362 39.1755C27.5421 40.2027 27.1812 41.8408 27.1812 44.062C27.1812 46.8106 27.5976 48.6986 28.4306 49.7259C29.2635 50.7532 30.4296 51.2529 31.9566 51.2529C33.4281 51.2529 34.5387 50.8364 35.2883 50.0313C36.038 49.1706 36.5933 47.9767 36.9264 46.4219ZM52.6132 31.7624H60.2762V40.4526H68.661V31.7624H76.3794V56.5836H68.661V46.533H60.2762V56.5836H52.6132V31.7624V31.7624Z" fill="white"/>
<path d="M75.3243 44.173C75.3243 40.1194 76.4627 36.9543 78.7116 34.7054C80.9605 32.4564 84.1256 31.3181 88.1514 31.3181C92.2883 31.3181 95.4534 32.4287 97.7023 34.6498C99.9512 36.871 101.062 39.9806 101.062 43.9786C101.062 46.8939 100.562 49.2538 99.5903 51.114C98.6463 52.9465 97.1748 54.4457 95.3701 55.4452C93.5099 56.4725 91.2055 57 88.4568 57C85.6526 57 83.3482 56.5558 81.5158 55.6674C79.6278 54.7234 78.073 53.2519 77.0457 51.4472C75.9074 49.5037 75.3243 47.0882 75.3243 44.173ZM82.9873 44.2007C82.9873 46.6995 83.4593 48.5042 84.3755 49.6148C85.2917 50.6976 86.5689 51.2528 88.1792 51.2528C89.8173 51.2528 91.0944 50.7253 92.0107 49.6425C92.9269 48.5597 93.3711 46.644 93.3711 43.8676C93.3711 41.5354 92.8991 39.814 91.9551 38.7589C91.0111 37.6761 89.734 37.1486 88.1237 37.1486C86.7077 37.0931 85.3472 37.7039 84.4033 38.7867C83.4593 39.8695 82.9873 41.6742 82.9873 44.2007V44.2007ZM108.919 44.173C108.919 40.1194 110.057 36.9543 112.306 34.7054C114.555 32.4564 117.72 31.3181 121.746 31.3181C125.883 31.3181 129.076 32.4287 131.297 34.6498C133.518 36.871 134.657 39.9806 134.657 43.9786C134.657 46.8939 134.157 49.2538 133.185 51.114C132.241 52.9465 130.77 54.4457 128.965 55.4452C127.105 56.4725 124.8 57 122.052 57C119.247 57 116.943 56.5558 115.111 55.6674C113.223 54.7234 111.668 53.2519 110.64 51.4472C109.502 49.5037 108.919 47.0882 108.919 44.173V44.173ZM116.582 44.2007C116.582 46.6995 117.054 48.5042 117.97 49.6148C118.886 50.6976 120.164 51.2528 121.774 51.2528C123.412 51.2528 124.689 50.7253 125.605 49.6425C126.522 48.5597 126.966 46.644 126.966 43.8676C126.966 41.5354 126.494 39.814 125.55 38.7589C124.606 37.6761 123.329 37.1486 121.718 37.1486C120.302 37.0931 118.914 37.7039 117.998 38.7867C117.054 39.8695 116.582 41.6742 116.582 44.2007V44.2007Z" fill="white"/>
<path d="M133.851 31.7622H141.514V50.4753H153.481V56.5834H133.824V31.7622H133.851Z" fill="white"/>
<path d="M125.405 30.3298C133.12 24.516 135.499 14.6606 130.719 8.31723C125.939 1.97384 115.809 1.54455 108.094 7.35838C100.379 13.1722 98.0004 23.0276 102.781 29.371C107.561 35.7144 117.69 36.1437 125.405 30.3298Z" fill="white"/>
<path d="M125.405 30.3298C133.12 24.516 135.499 14.6606 130.719 8.31723C125.939 1.97384 115.809 1.54455 108.094 7.35838C100.379 13.1722 98.0004 23.0276 102.781 29.371C107.561 35.7144 117.69 36.1437 125.405 30.3298Z" fill="white"/>
<path d="M108.947 17.0196L111.723 15.0761L115.138 19.9349C115.721 20.7123 116.166 21.5452 116.499 22.4614C116.693 23.1555 116.638 23.9052 116.36 24.5715C115.999 25.4044 115.416 26.0985 114.639 26.5983C113.722 27.2369 112.945 27.5978 112.279 27.7089C111.64 27.8199 110.974 27.7089 110.363 27.4312C109.697 27.098 109.114 26.6261 108.669 26.0152L111.057 23.7941C111.251 24.0995 111.501 24.3771 111.779 24.5993C111.973 24.7381 112.195 24.8214 112.445 24.8214C112.64 24.8214 112.834 24.7381 112.973 24.627C113.25 24.4604 113.445 24.1273 113.417 23.7941C113.334 23.3221 113.139 22.8501 112.834 22.4892L108.947 17.0196V17.0196ZM117.276 20.1015L119.803 18.1024C120.08 18.4356 120.441 18.6855 120.83 18.8243C121.385 18.9909 121.968 18.8798 122.44 18.5189C122.774 18.2968 123.051 17.9914 123.162 17.6027C123.329 17.1029 123.051 16.5476 122.551 16.381C122.468 16.3533 122.385 16.3255 122.302 16.3255C121.968 16.2978 121.385 16.4366 120.525 16.7975C119.109 17.3806 117.998 17.6027 117.165 17.5194C116.36 17.4361 115.61 17.0196 115.166 16.3255C114.833 15.8535 114.666 15.2982 114.639 14.743C114.639 14.1044 114.805 13.4658 115.166 12.9383C115.694 12.1886 116.332 11.5501 117.11 11.0503C118.276 10.2451 119.303 9.85645 120.191 9.85645C121.08 9.85645 121.913 10.2729 122.69 11.1336L120.191 13.1049C119.692 12.4663 118.748 12.3275 118.109 12.8272L118.026 12.9105C117.748 13.0771 117.554 13.327 117.443 13.6324C117.36 13.8545 117.415 14.1044 117.554 14.2987C117.665 14.4375 117.832 14.5486 118.026 14.5486C118.248 14.5764 118.637 14.4653 119.192 14.2154C120.58 13.6324 121.635 13.2992 122.357 13.1882C122.968 13.0771 123.606 13.1326 124.19 13.3825C124.717 13.6046 125.161 13.9933 125.467 14.4653C125.855 15.0206 126.078 15.6869 126.105 16.381C126.133 17.1029 125.939 17.797 125.55 18.4078C125.05 19.1575 124.412 19.796 123.662 20.2958C122.135 21.3508 120.886 21.7951 119.886 21.6285C118.803 21.4619 117.915 20.9066 117.276 20.1015V20.1015Z" fill="#292827"/>
</g>
<defs>
<clipPath id="clip0_146_9">
<rect width="153.481" height="57" fill="white"/>
</clipPath>
</defs>
</svg>
