<svg width="18" height="18" viewBox="0 0 18 18" fill="none" xmlns="http://www.w3.org/2000/svg">
<path d="M15.1916 9.81252C15.225 9.54585 15.25 9.27502 15.25 9.00002C15.25 8.72502 15.225 8.45419 15.1916 8.18752L16.9541 6.80835C17.1125 6.68335 17.1583 6.45835 17.0541 6.27502L15.3875 3.38752C15.2833 3.20835 15.0666 3.13335 14.8791 3.20835L12.8041 4.04585C12.375 3.71669 11.9041 3.43752 11.3958 3.22502L11.0833 1.01669C11.0458 0.820854 10.875 0.666687 10.6666 0.666687H7.33331C7.12498 0.666687 6.95414 0.820854 6.92081 1.01669L6.60831 3.22502C6.09998 3.43752 5.62914 3.71252 5.19998 4.04585L3.12498 3.20835C2.93748 3.13752 2.72081 3.20835 2.61665 3.38752L0.949978 6.27502C0.845812 6.45419 0.891645 6.67919 1.04998 6.80835L2.80831 8.18752C2.77498 8.45419 2.74998 8.72502 2.74998 9.00002C2.74998 9.27502 2.77498 9.54585 2.80831 9.81252L1.04998 11.1917C0.891645 11.3167 0.845812 11.5417 0.949978 11.725L2.61665 14.6125C2.72081 14.7917 2.93748 14.8667 3.12498 14.7917L5.19998 13.9542C5.62914 14.2834 6.09998 14.5625 6.60831 14.775L6.92081 16.9834C6.95414 17.1792 7.12498 17.3334 7.33331 17.3334H10.6666C10.875 17.3334 11.0458 17.1792 11.0791 16.9834L11.3916 14.775C11.9 14.5625 12.3708 14.2875 12.8 13.9542L14.875 14.7917C15.0625 14.8625 15.2791 14.7917 15.3833 14.6125L17.05 11.725C17.1541 11.5459 17.1083 11.3209 16.95 11.1917L15.1916 9.81252V9.81252ZM8.99998 11.9167C7.38748 11.9167 6.08331 10.6125 6.08331 9.00002C6.08331 7.38752 7.38748 6.08335 8.99998 6.08335C10.6125 6.08335 11.9166 7.38752 11.9166 9.00002C11.9166 10.6125 10.6125 11.9167 8.99998 11.9167Z" fill="#514B4B"/>
</svg>
